<svg id="Layer_1" x="0px" y="0px" viewBox="0 0 500 500" style="cursor:pointer" xml:space="preserve" width="100px" fill="#5780F1">
                            <style type="text/css">
                            .st0 {
                                fill: #CCCCCC;
                            }

                            .st1-logo {
                                fill: #5780F1 !important;
                            }
                            </style>
                            <g>
                                <path class="st0" d="M279.6,259.7c0,0-5.2-3.5-7.6-5.1c-1.1-0.7-2.1-1.4-3-2.1c-0.7-0.5-1.4-1-2.1-1.5c-0.5-0.4-1.1-0.8-1.6-1.1 c-2.1-1.6-4-3-5.6-4.4c-0.5-0.5-1-0.9-1.5-1.3c-0.6-0.5-1.1-1.1-1.7-1.6c-0.5-0.5-0.9-1-1.3-1.4c0,0,0-0.1,0-0.1 c-0.3-0.3-0.5-0.5-0.6-0.8c-0.7-0.9-1.1-1.7-1.3-2.4c-0.1-0.1-0.1-0.3-0.1-0.4c-0.1-0.6-0.1-1.1,0.2-1.6c3.1-5.2,6.3-9.9,9.8-14.1 C258.3,240.7,279.6,259.7,279.6,259.7z"></path>
                                <path class="st1-logo" d="M345.6,167.1c-0.7,1.7-2.1,3.1-4.8,4.1c0,5.8-1.4,20.6-7.7,27.2c-6.3,6.6-24.2,7.9-35.2,0 c-7.8-0.9-22.1,7.7-34.9,23.4c-3.4,4.2-6.7,8.9-9.8,14.1c-0.3,0.5-0.3,1-0.2,1.6c0,0.1,0,0.2,0.1,0.4c0.2,0.7,0.7,1.5,1.3,2.4 c0.2,0.3,0.4,0.5,0.6,0.8c0,0,0,0,0,0.1c0.4,0.5,0.9,0.9,1.3,1.4c0.5,0.5,1.1,1,1.7,1.6c0.5,0.4,0.9,0.8,1.5,1.3 c1.6,1.4,3.5,2.8,5.6,4.4c0.5,0.4,1,0.8,1.6,1.1c0.7,0.5,1.4,1,2.1,1.5c1,0.7,2,1.4,3,2.1c2.4,1.6,4.9,3.3,7.6,5.2 c-14.8,6.9-31.2,10.7-48.6,10.7c-10.6,0-20.9-1.4-30.6-4.1c-14.6-4.7-28.2-11.6-40.4-20.3c-0.1-0.1-0.1-0.1-0.2-0.1 c-2-1.4-4-2.9-5.9-4.5c0-0.1,0.1-0.3,0.1-0.5c2.2-8.5,4.2-16.6,5.6-23.9c8.5-42,18.2-87.2,18.2-87.2s14.2,23,19.1,23 c-4.9-5.2-20.6-48.9-16.2-50.8s31.3-16.2,48.9,7.9c-3-9.9-17.1-19.8-17.1-19.8s43.7,0,55.5,0c11.8,0,50.5,6.1,52.4,40.6 c3.6,4.1,20.7,24.5,22.8,26.6c0.9,0.9,2.3,3.2,2.6,5.7C346.2,164.4,346.1,165.8,345.6,167.1z"></path>
                            </g>
                            <g>
                                <path class="st1-logo" d="M215.6,382.4c-7.4,0-14.1-2.9-19-7.7v18.4c0,9.2-7.5,16.8-16.8,16.8l0,0v-93.7h9.2c3.8,0,6.8,3,6.8,6.8l0,0 c5-5.2,12-8.3,19.8-8.3c17,0,30.9,14.6,30.9,33.8C246.4,367.7,232.6,382.4,215.6,382.4z M213.2,330.2c-9.2,0-16.6,8.2-16.6,18.3 c0,10.2,7.4,18.5,16.6,18.5s16.6-7.9,16.6-18.5C229.8,338,222.4,330.2,213.2,330.2z"></path>
                                <path class="st1-logo" d="M318.1,381.2h-8.9c-3.8,0-6.8-3-6.8-6.8l0,0c-4.9,5.4-12,8.2-19.8,8.2c-17.1,0-31.1-15.1-31.1-33.8 c0-18.8,13.7-34.1,33.4-34.1c19.5,0,33.2,15.4,33.2,34.1V381.2L318.1,381.2z M284.8,330.3c-9.2,0-16.6,7.9-16.6,18.6 c0,10.3,7.4,18.3,16.6,18.3s16.6-8.2,16.6-18.3C301.4,338.6,294,330.3,284.8,330.3z"></path>
                                <path class="st1-logo" d="M359.9,382.7c-19.5,0-33.5-15.1-33.5-33.9s14-34.1,33.5-34.1c15.6,0,27.5,8.8,31.2,23.4h-10.3 c-3.9,0-7.7-1.4-10.6-4c-2.6-2.5-6.3-4.2-10.4-4.2c-9.2,0-16.6,8.6-16.6,19c0,10.2,7.4,18.6,16.6,18.6c4.2,0,7.9-1.7,10.6-4.2 c2.9-2.7,6.7-4.1,10.6-4.1h10.1C387.4,374,375.6,382.7,359.9,382.7z"></path>
                                <path class="st1-logo" d="M412.6,355.2c2.1,7.9,8.4,12.8,16.2,12.8c3.8,0,7.5-1.1,10.3-3.4c3.1-2.5,6.8-4.1,10.7-4.1h10.5 c-3.8,13.2-15.2,22.2-31.4,22.2c-18.3,0-33.2-15.1-33.2-33.9s15-34.1,33.2-34.1c19.1,0,35,14.9,32.6,40.5L412.6,355.2L412.6,355.2z  M445.1,341.6c-2-7.6-8.3-12.3-16.2-12.3c-7.5,0-13.6,4.8-16,12.3H445.1z"></path>
                                <path class="st1-logo" d="M102.1,375.1c0,20.7-12.3,33.6-32.2,33.6c-13.8,0-25.8-7.4-29.5-18.9c-0.5-1.4,0.6-2.9,2.1-2.9h13.4 c0.8,0,1.5,0.4,1.9,1.1c2.5,4.1,8.1,5.8,12.1,5.8c11.2,0,16.3-7.4,16.3-18.5v-3c-4.8,4.6-11.1,7.2-18.4,7.2 c-16.2,0-29.6-14-29.6-32.4c0-18.5,13.4-32.5,29.6-32.5c7.6,0,14.1,2.9,19.1,8l0,0c0-3.7,3-6.6,6.6-6.6h8.6V375.1z M70.2,329.4 c-8.8,0-15.9,7.7-15.9,17.9c0,9.9,7.1,17.5,15.9,17.5s15.9-7.9,15.9-17.5C86.1,337.4,79,329.4,70.2,329.4z"></path>
                                <path class="st1-logo" d="M174.1,349.6c0,19.8-15.1,34.7-33.5,34.7s-33.4-14.8-33.4-34.7s14.9-34.9,33.4-34.9 C159,314.7,174.1,329.8,174.1,349.6z M156.4,349.7c0-11-7.1-18.7-15.7-18.7s-15.7,7.7-15.7,18.7c0,10.8,7.1,18.2,15.7,18.2 S156.4,360.5,156.4,349.7z"></path>
                            </g>
                        </svg>